<?xml version="1.0" encoding="UTF-8"?>
<svg xmlns="http://www.w3.org/2000/svg" xmlns:xlink="http://www.w3.org/1999/xlink" width="90px" height="25px" viewBox="0 0 88 25" version="1.1">
<g id="surface1">
<path style=" stroke:none;fill-rule:evenodd;fill:rgb(39.607844%,38.431373%,38.431373%);fill-opacity:1;" d="M 21.457031 0 L 12.675781 0 L 12.675781 2.0625 L 15.875 2.066406 L 15.875 8.835938 L 18.253906 8.835938 L 18.25 2.0625 L 21.457031 2.066406 Z M 21.457031 0 "/>
<path style=" stroke:none;fill-rule:evenodd;fill:rgb(89.803922%,8.627451%,20.784314%);fill-opacity:1;" d="M 45.339844 14.976562 C 45.339844 14.203125 44.714844 13.582031 43.941406 13.582031 L 40.851562 13.582031 C 40.582031 13.582031 40.449219 13.71875 40.304688 13.933594 C 40.296875 13.941406 39.382812 15.265625 39.382812 15.265625 L 42.363281 15.265625 C 42.714844 15.28125 42.992188 15.574219 42.988281 15.925781 L 42.988281 20.0625 L 45.339844 20.0625 Z M 37.03125 11.226562 L 39.382812 11.226562 L 39.382812 20.0625 L 37.03125 20.0625 Z M 57.464844 13.582031 L 50.78125 13.582031 L 50.78125 20.0625 L 53.148438 20.0625 L 53.148438 15.265625 L 55.835938 15.265625 C 56.199219 15.265625 56.503906 15.558594 56.503906 15.925781 L 56.503906 20.0625 L 58.863281 20.0625 L 58.863281 14.976562 C 58.863281 14.203125 58.234375 13.582031 57.464844 13.582031 M 23.972656 11.226562 L 12.675781 11.226562 L 12.675781 20.0625 L 15.019531 20.0625 L 15.019531 13.289062 L 17.53125 13.289062 C 17.769531 13.289062 17.957031 13.488281 17.957031 13.726562 L 17.957031 20.0625 L 20.308594 20.0625 L 20.308594 13.726562 C 20.308594 13.609375 20.355469 13.5 20.4375 13.417969 C 20.519531 13.335938 20.632812 13.289062 20.746094 13.289062 L 22.597656 13.289062 C 22.957031 13.289062 23.25 13.574219 23.25 13.933594 L 23.25 20.0625 L 25.59375 20.0625 L 25.59375 12.851562 C 25.59375 12.417969 25.421875 12.003906 25.117188 11.699219 C 24.816406 11.394531 24.402344 11.222656 23.972656 11.226562 M 46.890625 15.6875 L 46.890625 20.0625 L 49.242188 20.0625 L 49.242188 13.65625 C 49.242188 13.65625 48.152344 14.332031 47.382812 14.820312 C 47.089844 15.011719 46.890625 15.328125 46.890625 15.6875 M 46.890625 11.21875 L 49.242188 11.21875 L 49.242188 12.851562 L 46.890625 14.414062 Z M 71.4375 13.582031 C 70.847656 13.582031 70.46875 14.039062 70.46875 14.523438 L 70.46875 20.0625 L 72.835938 20.0625 L 72.835938 15.933594 C 72.835938 15.566406 73.097656 15.257812 73.46875 15.257812 L 75.226562 15.257812 C 75.480469 15.242188 75.695312 15.089844 75.828125 14.890625 C 75.835938 14.882812 76.75 13.582031 76.75 13.582031 Z M 66.558594 11.226562 L 66.558594 18.445312 L 63.152344 18.445312 C 62.914062 18.445312 62.746094 18.238281 62.746094 18.0625 L 62.746094 15.925781 L 62.753906 15.925781 C 62.753906 15.75 62.824219 15.582031 62.945312 15.457031 C 63.070312 15.335938 63.238281 15.265625 63.414062 15.265625 L 65.136719 15.265625 C 65.390625 15.265625 65.652344 15.113281 65.765625 14.9375 L 66.558594 13.582031 L 61.777344 13.582031 C 61.015625 13.582031 60.386719 14.207031 60.386719 14.976562 L 60.386719 18.898438 C 60.386719 19.648438 60.980469 20.0625 61.53125 20.0625 L 68.917969 20.0625 L 68.917969 11.226562 Z M 83.652344 13.582031 L 78.21875 13.582031 C 77.949219 13.582031 77.703125 13.710938 77.554688 13.917969 L 76.640625 15.265625 L 82.113281 15.265625 C 82.453125 15.28125 82.730469 15.574219 82.730469 15.925781 L 82.722656 18.5 L 78.625 18.5 L 78.625 17.757812 C 78.625 17.617188 78.746094 17.496094 78.886719 17.496094 L 81.753906 17.496094 L 81.753906 16.539062 C 81.753906 16.308594 81.613281 16.179688 81.414062 16.179688 L 77.441406 16.179688 C 76.949219 16.179688 76.558594 16.570312 76.558594 17.058594 L 76.558594 19.410156 C 76.558594 19.425781 76.558594 19.433594 76.566406 19.449219 C 76.625 19.800781 76.925781 20.0625 77.289062 20.0625 L 85.042969 20.0625 L 85.042969 14.976562 C 85.042969 14.609375 84.898438 14.253906 84.636719 13.992188 C 84.375 13.730469 84.023438 13.582031 83.652344 13.582031 M 34.179688 13.582031 L 28.746094 13.582031 C 28.484375 13.582031 28.230469 13.710938 28.085938 13.917969 L 27.164062 15.265625 L 32.640625 15.265625 C 32.980469 15.28125 33.257812 15.574219 33.257812 15.925781 L 33.257812 18.5 L 29.152344 18.5 L 29.152344 17.757812 C 29.152344 17.617188 29.269531 17.496094 29.414062 17.496094 L 32.28125 17.496094 L 32.28125 16.539062 C 32.28125 16.308594 32.136719 16.179688 31.941406 16.179688 L 27.96875 16.179688 C 27.476562 16.179688 27.085938 16.570312 27.085938 17.058594 L 27.085938 19.410156 C 27.085938 19.425781 27.085938 19.433594 27.09375 19.449219 C 27.152344 19.804688 27.457031 20.0625 27.816406 20.0625 L 35.570312 20.0625 L 35.570312 14.976562 C 35.570312 14.609375 35.425781 14.253906 35.164062 13.992188 C 34.902344 13.730469 34.546875 13.582031 34.179688 13.582031 "/>
<path style=" stroke:none;fill-rule:evenodd;fill:rgb(39.607844%,38.431373%,38.431373%);fill-opacity:1;" d="M 49.242188 3.863281 C 49.242188 3.089844 48.613281 2.46875 47.84375 2.46875 L 44.671875 2.46875 C 44.402344 2.46875 44.265625 2.605469 44.125 2.820312 C 44.117188 2.828125 43.203125 4.152344 43.203125 4.152344 L 46.261719 4.152344 C 46.613281 4.167969 46.890625 4.457031 46.890625 4.8125 L 46.890625 8.949219 L 49.242188 8.949219 Z M 40.851562 0.109375 L 43.203125 0.109375 L 43.203125 8.949219 L 40.851562 8.949219 Z M 34.324219 6.605469 L 34.332031 6.605469 C 34.332031 6.78125 34.402344 6.949219 34.527344 7.074219 C 34.652344 7.199219 34.820312 7.265625 34.996094 7.265625 L 39.390625 7.265625 L 39.390625 8.949219 L 33.351562 8.949219 C 32.585938 8.949219 31.953125 8.324219 31.953125 7.554688 L 31.953125 2.757812 L 31.953125 3.753906 C 31.953125 2.980469 32.585938 2.359375 33.351562 2.359375 L 39.375 2.359375 L 39.003906 3.28125 C 38.925781 3.476562 38.886719 3.644531 38.707031 3.769531 C 38.578125 3.859375 38.472656 3.921875 38.308594 3.921875 L 34.996094 3.921875 C 34.820312 3.921875 34.652344 3.992188 34.527344 4.113281 C 34.402344 4.238281 34.332031 4.40625 34.332031 4.582031 L 34.324219 4.582031 Z M 23.773438 8.867188 L 28.804688 8.867188 C 29.066406 8.867188 29.320312 8.738281 29.464844 8.53125 L 30.386719 7.183594 L 25.316406 7.183594 C 24.972656 7.167969 24.695312 6.875 24.695312 6.523438 L 24.695312 3.949219 L 28.398438 3.949219 L 28.398438 4.691406 C 28.398438 4.835938 28.28125 4.953125 28.136719 4.953125 L 25.671875 4.953125 L 25.671875 5.910156 C 25.671875 6.140625 25.816406 6.269531 26.015625 6.269531 L 29.582031 6.269531 C 30.074219 6.269531 30.464844 5.878906 30.464844 5.390625 L 30.464844 3.042969 C 30.464844 3.027344 30.464844 3.015625 30.457031 3 C 30.398438 2.644531 30.09375 2.386719 29.734375 2.386719 L 22.382812 2.386719 L 22.382812 7.472656 C 22.382812 7.84375 22.53125 8.199219 22.789062 8.460938 C 23.050781 8.722656 23.40625 8.867188 23.773438 8.867188 "/>
</g>
</svg>
