<?xml version="1.0" encoding="UTF-8"?>
<svg xmlns="http://www.w3.org/2000/svg" xmlns:xlink="http://www.w3.org/1999/xlink" width="139px" height="90px" viewBox="0 0 139 90" version="1.1">
<g id="surface1">
<path style=" stroke:none;fill-rule:nonzero;fill:rgb(16.862746%,29.803923%,52.941179%);fill-opacity:1;" d="M 115.839844 35.316406 C 116.5 37.742188 118.96875 39.171875 121.394531 38.535156 C 123.820312 37.878906 125.25 35.40625 124.613281 32.980469 C 123.957031 30.550781 121.484375 29.121094 119.058594 29.757812 C 116.632812 30.414062 115.207031 32.910156 115.839844 35.316406 Z M 109.675781 40.191406 C 111.328125 39.738281 112.304688 38.058594 111.875 36.402344 C 111.417969 34.746094 109.742188 33.773438 108.085938 34.203125 C 106.433594 34.65625 105.457031 36.335938 105.886719 37.992188 C 106.320312 39.648438 108.019531 40.621094 109.675781 40.191406 Z M 100.582031 41.777344 C 101.785156 41.460938 102.511719 40.214844 102.191406 38.988281 C 101.875 37.789062 100.628906 37.0625 99.402344 37.378906 C 98.203125 37.695312 97.476562 38.945312 97.792969 40.167969 C 98.113281 41.371094 99.359375 42.097656 100.582031 41.777344 Z M 100.582031 41.777344 "/>
<path style=" stroke:none;fill-rule:nonzero;fill:rgb(18.039216%,30.588236%,53.333336%);fill-opacity:1;" d="M 93.488281 42.824219 C 94.257812 42.617188 94.710938 41.824219 94.507812 41.054688 C 94.300781 40.28125 93.507812 39.828125 92.738281 40.03125 C 91.96875 40.238281 91.515625 41.03125 91.71875 41.800781 C 91.921875 42.574219 92.714844 43.027344 93.488281 42.824219 Z M 93.488281 42.824219 "/>
<path style=" stroke:none;fill-rule:nonzero;fill:rgb(11.764706%,24.313726%,43.921569%);fill-opacity:1;" d="M 112.460938 26.105469 C 113.597656 28.078125 116.136719 28.761719 118.109375 27.625 C 120.082031 26.492188 120.761719 23.953125 119.625 21.976562 C 118.492188 20.003906 115.953125 19.324219 113.980469 20.457031 C 111.988281 21.617188 111.328125 24.132812 112.460938 26.105469 Z M 103.347656 31.367188 C 104.140625 32.753906 105.910156 33.226562 107.292969 32.433594 C 108.675781 31.640625 109.152344 29.871094 108.359375 28.488281 C 107.566406 27.105469 105.796875 26.628906 104.414062 27.421875 C 103.007812 28.214844 102.53125 29.984375 103.347656 31.367188 Z M 96.84375 32.730469 C 95.84375 33.296875 95.527344 34.566406 96.09375 35.542969 C 96.660156 36.539062 97.929688 36.855469 98.90625 36.289062 C 99.902344 35.722656 100.21875 34.453125 99.652344 33.476562 C 99.109375 32.503906 97.839844 32.164062 96.84375 32.730469 Z M 91.039062 36.925781 C 90.402344 37.289062 90.175781 38.105469 90.539062 38.761719 C 90.902344 39.398438 91.742188 39.625 92.375 39.261719 C 93.011719 38.898438 93.238281 38.058594 92.875 37.425781 C 92.511719 36.765625 91.695312 36.5625 91.039062 36.925781 Z M 91.039062 36.925781 "/>
<path style=" stroke:none;fill-rule:nonzero;fill:rgb(9.411765%,30.19608%,53.725493%);fill-opacity:1;" d="M 111.988281 17.988281 C 113.4375 16.535156 113.4375 14.175781 111.988281 12.722656 C 110.535156 11.273438 108.175781 11.273438 106.726562 12.722656 C 105.277344 14.175781 105.277344 16.535156 106.726562 17.988281 C 108.175781 19.4375 110.535156 19.4375 111.988281 17.988281 Z M 102.941406 21.796875 C 101.898438 20.753906 100.199219 20.753906 99.15625 21.796875 C 98.113281 22.839844 98.113281 24.542969 99.15625 25.585938 C 100.199219 26.628906 101.898438 26.628906 102.941406 25.585938 C 103.984375 24.542969 103.984375 22.839844 102.941406 21.796875 Z M 93.238281 28.875 C 92.511719 29.597656 92.511719 30.777344 93.238281 31.503906 C 93.960938 32.230469 95.140625 32.230469 95.867188 31.503906 C 96.59375 30.777344 96.59375 29.597656 95.867188 28.875 C 95.140625 28.148438 93.960938 28.148438 93.238281 28.875 Z M 88.636719 36.109375 C 89.109375 36.585938 89.90625 36.585938 90.378906 36.109375 C 90.855469 35.632812 90.855469 34.839844 90.378906 34.363281 C 89.90625 33.886719 89.109375 33.886719 88.636719 34.363281 C 88.136719 34.839844 88.136719 35.609375 88.636719 36.109375 Z M 88.636719 36.109375 "/>
<path style=" stroke:none;fill-rule:nonzero;fill:rgb(20.784314%,41.176471%,64.313728%);fill-opacity:1;" d="M 98.925781 11.75 C 100.605469 12.722656 102.757812 12.132812 103.710938 10.457031 C 104.6875 8.777344 104.097656 6.621094 102.417969 5.671875 C 100.742188 4.695312 98.585938 5.285156 97.636719 6.964844 C 96.660156 8.640625 97.25 10.773438 98.925781 11.75 Z M 92.648438 17.667969 C 91.96875 18.847656 92.375 20.367188 93.554688 21.046875 C 94.734375 21.730469 96.253906 21.320312 96.933594 20.140625 C 97.613281 18.960938 97.203125 17.441406 96.027344 16.761719 C 94.847656 16.082031 93.328125 16.488281 92.648438 17.667969 Z M 91.015625 25.425781 C 90.222656 24.972656 89.222656 25.246094 88.75 26.039062 C 88.292969 26.832031 88.566406 27.832031 89.359375 28.304688 C 90.152344 28.761719 91.152344 28.488281 91.605469 27.695312 C 92.082031 26.898438 91.808594 25.902344 91.015625 25.425781 Z M 87.207031 32.050781 C 86.664062 31.730469 85.960938 31.914062 85.664062 32.457031 C 85.347656 33 85.527344 33.703125 86.074219 34 C 86.617188 34.316406 87.320312 34.136719 87.613281 33.589844 C 87.933594 33.070312 87.75 32.367188 87.207031 32.050781 Z M 87.207031 32.050781 "/>
<path style=" stroke:none;fill-rule:nonzero;fill:rgb(29.411766%,55.29412%,79.607844%);fill-opacity:1;" d="M 89.699219 7.710938 C 91.46875 8.1875 93.28125 7.144531 93.734375 5.375 C 94.210938 3.605469 93.167969 1.792969 91.402344 1.339844 C 89.632812 0.863281 87.820312 1.90625 87.363281 3.675781 C 86.890625 5.445312 87.953125 7.257812 89.699219 7.710938 Z M 86.933594 18.101562 C 88.136719 18.417969 89.382812 17.714844 89.722656 16.488281 C 90.039062 15.289062 89.335938 14.039062 88.113281 13.699219 C 86.910156 13.382812 85.664062 14.085938 85.324219 15.308594 C 85.007812 16.535156 85.710938 17.78125 86.933594 18.101562 Z M 84.734375 26.289062 C 85.550781 26.515625 86.414062 26.015625 86.640625 25.199219 C 86.867188 24.382812 86.367188 23.519531 85.550781 23.292969 C 84.734375 23.066406 83.875 23.566406 83.648438 24.382812 C 83.421875 25.199219 83.917969 26.0625 84.734375 26.289062 Z M 82.285156 31.390625 C 82.152344 31.933594 82.46875 32.503906 83.011719 32.660156 C 83.554688 32.820312 84.125 32.480469 84.28125 31.933594 C 84.417969 31.390625 84.101562 30.824219 83.554688 30.664062 C 83.011719 30.527344 82.445312 30.847656 82.285156 31.390625 Z M 82.285156 31.390625 "/>
<path style=" stroke:none;fill-rule:nonzero;fill:rgb(20%,59.607846%,70.19608%);fill-opacity:1;" d="M 79.703125 6.214844 C 81.402344 6.214844 82.808594 4.832031 82.808594 3.105469 C 82.808594 1.40625 81.425781 0 79.703125 0 C 78 0 76.597656 1.382812 76.597656 3.105469 C 76.617188 4.832031 78 6.214844 79.703125 6.214844 Z M 79.703125 12.816406 C 78.570312 12.816406 77.640625 13.746094 77.640625 14.878906 C 77.640625 16.011719 78.570312 16.941406 79.703125 16.941406 C 80.835938 16.941406 81.765625 16.011719 81.765625 14.878906 C 81.765625 13.746094 80.859375 12.816406 79.703125 12.816406 Z M 81.152344 24.085938 C 81.152344 23.292969 80.496094 22.636719 79.703125 22.636719 C 78.910156 22.636719 78.25 23.292969 78.25 24.085938 C 78.25 24.882812 78.910156 25.539062 79.703125 25.539062 C 80.519531 25.515625 81.152344 24.882812 81.152344 24.085938 Z M 79.703125 30.28125 C 79.179688 30.28125 78.773438 30.6875 78.773438 31.210938 C 78.773438 31.730469 79.179688 32.140625 79.703125 32.140625 C 80.222656 32.140625 80.632812 31.730469 80.632812 31.210938 C 80.632812 30.6875 80.222656 30.28125 79.703125 30.28125 Z M 79.703125 30.28125 "/>
<path style=" stroke:none;fill-rule:nonzero;fill:rgb(0.784314%,64.313728%,58.823532%);fill-opacity:1;" d="M 69.613281 7.347656 C 71.15625 6.941406 72.0625 5.351562 71.652344 3.808594 C 71.246094 2.269531 69.660156 1.359375 68.117188 1.769531 C 66.574219 2.175781 65.667969 3.765625 66.078125 5.308594 C 66.484375 6.851562 68.070312 7.757812 69.613281 7.347656 Z M 70.113281 16.398438 C 70.382812 17.398438 71.40625 17.988281 72.378906 17.714844 C 73.375 17.441406 73.964844 16.421875 73.695312 15.445312 C 73.421875 14.449219 72.402344 13.859375 71.425781 14.128906 C 70.429688 14.402344 69.839844 15.421875 70.113281 16.398438 Z M 72.992188 25.152344 C 73.171875 25.878906 73.921875 26.289062 74.625 26.105469 C 75.347656 25.925781 75.757812 25.175781 75.574219 24.449219 C 75.394531 23.726562 74.644531 23.316406 73.945312 23.496094 C 73.21875 23.703125 72.808594 24.429688 72.992188 25.152344 Z M 75.328125 31.914062 C 75.441406 32.34375 75.894531 32.617188 76.347656 32.503906 C 76.777344 32.390625 77.050781 31.933594 76.9375 31.480469 C 76.824219 31.050781 76.371094 30.777344 75.917969 30.890625 C 75.484375 31.003906 75.214844 31.460938 75.328125 31.914062 Z M 75.328125 31.914062 "/>
<path style=" stroke:none;fill-rule:nonzero;fill:rgb(0%,66.666669%,45.882353%);fill-opacity:1;" d="M 60.089844 11.089844 C 61.382812 10.34375 61.8125 8.710938 61.066406 7.417969 C 60.316406 6.125 58.6875 5.691406 57.394531 6.441406 C 56.101562 7.191406 55.671875 8.824219 56.417969 10.117188 C 57.167969 11.386719 58.820312 11.816406 60.089844 11.089844 Z M 65.464844 20.390625 C 66.257812 19.9375 66.53125 18.917969 66.078125 18.144531 C 65.625 17.351562 64.601562 17.078125 63.808594 17.53125 C 63.015625 17.988281 62.742188 19.007812 63.199219 19.800781 C 63.671875 20.570312 64.671875 20.84375 65.464844 20.390625 Z M 69.863281 27.988281 C 70.453125 27.648438 70.65625 26.878906 70.316406 26.289062 C 69.976562 25.699219 69.207031 25.492188 68.617188 25.835938 C 68.027344 26.175781 67.824219 26.921875 68.164062 27.535156 C 68.503906 28.125 69.273438 28.328125 69.863281 27.988281 Z M 73.421875 32.730469 C 73.21875 32.390625 72.789062 32.277344 72.425781 32.457031 C 72.085938 32.660156 71.972656 33.09375 72.152344 33.457031 C 72.355469 33.796875 72.789062 33.910156 73.148438 33.726562 C 73.511719 33.5 73.625 33.070312 73.421875 32.730469 Z M 73.421875 32.730469 "/>
<path style=" stroke:none;fill-rule:nonzero;fill:rgb(30.980393%,72.941178%,41.176471%);fill-opacity:1;" d="M 51.839844 17.191406 C 52.8125 16.21875 52.8125 14.652344 51.839844 13.675781 C 50.863281 12.703125 49.300781 12.703125 48.324219 13.675781 C 47.351562 14.652344 47.351562 16.21875 48.324219 17.191406 C 49.300781 18.144531 50.863281 18.144531 51.839844 17.191406 Z M 59.433594 22.726562 C 58.867188 22.160156 57.960938 22.160156 57.394531 22.726562 C 56.828125 23.292969 56.828125 24.199219 57.394531 24.769531 C 57.960938 25.335938 58.867188 25.335938 59.433594 24.769531 C 60 24.222656 60 23.292969 59.433594 22.726562 Z M 65.714844 29.441406 C 65.261719 28.988281 64.558594 28.988281 64.105469 29.441406 C 63.652344 29.894531 63.652344 30.597656 64.105469 31.050781 C 64.558594 31.503906 65.261719 31.503906 65.714844 31.050781 C 66.144531 30.621094 66.144531 29.894531 65.714844 29.441406 Z M 70.382812 34.863281 C 70.136719 34.613281 69.75 34.613281 69.5 34.863281 C 69.25 35.109375 69.25 35.496094 69.5 35.746094 C 69.75 35.996094 70.136719 35.996094 70.382812 35.746094 C 70.632812 35.496094 70.632812 35.089844 70.382812 34.863281 Z M 70.382812 34.863281 "/>
<path style=" stroke:none;fill-rule:nonzero;fill:rgb(49.411765%,76.862746%,37.254903%);fill-opacity:1;" d="M 42.226562 26.015625 C 43.3125 26.652344 44.699219 26.265625 45.332031 25.175781 C 45.96875 24.085938 45.582031 22.703125 44.492188 22.070312 C 43.40625 21.433594 42.023438 21.820312 41.386719 22.910156 C 40.753906 23.996094 41.136719 25.378906 42.226562 26.015625 Z M 54.242188 28.941406 C 53.652344 28.601562 52.882812 28.804688 52.542969 29.394531 C 52.203125 29.984375 52.40625 30.757812 52.996094 31.097656 C 53.585938 31.4375 54.355469 31.230469 54.695312 30.644531 C 55.035156 30.03125 54.832031 29.28125 54.242188 28.941406 Z M 62.109375 33.703125 C 61.609375 33.410156 60.976562 33.589844 60.703125 34.089844 C 60.410156 34.589844 60.589844 35.222656 61.089844 35.496094 C 61.585938 35.792969 62.222656 35.609375 62.496094 35.109375 C 62.765625 34.632812 62.585938 34 62.109375 33.703125 Z M 62.109375 33.703125 "/>
<path style=" stroke:none;fill-rule:nonzero;fill:rgb(29.803923%,37.64706%,60.784316%);fill-opacity:1;" d="M 121.667969 40.03125 C 118.925781 40.03125 116.703125 42.253906 116.703125 45 C 116.703125 47.746094 118.925781 49.96875 121.667969 49.96875 C 124.410156 49.96875 126.632812 47.746094 126.632812 45 C 126.632812 42.253906 124.410156 40.03125 121.667969 40.03125 Z M 113.460938 45 C 113.460938 43.050781 111.875 41.4375 109.902344 41.4375 C 107.929688 41.4375 106.339844 43.027344 106.339844 45 C 106.339844 46.949219 107.929688 48.5625 109.902344 48.5625 C 111.875 48.5625 113.460938 46.972656 113.460938 45 Z M 100.71875 42.574219 C 99.382812 42.574219 98.292969 43.660156 98.292969 45 C 98.292969 46.339844 99.382812 47.425781 100.71875 47.425781 C 102.054688 47.425781 103.144531 46.339844 103.144531 45 C 103.144531 43.660156 102.054688 42.574219 100.71875 42.574219 Z M 100.71875 42.574219 "/>
<path style=" stroke:none;fill-rule:nonzero;fill:rgb(32.941177%,40.000001%,62.352943%);fill-opacity:1;" d="M 95.164062 45 C 95.164062 44.136719 94.460938 43.414062 93.578125 43.414062 C 92.714844 43.414062 91.988281 44.117188 91.988281 45 C 91.988281 45.863281 92.691406 46.585938 93.578125 46.585938 C 94.460938 46.585938 95.164062 45.863281 95.164062 45 Z M 95.164062 45 "/>
<path style=" stroke:none;fill-rule:nonzero;fill:rgb(45.490196%,43.529412%,65.882355%);fill-opacity:1;" d="M 121.417969 51.464844 C 118.992188 50.804688 116.5 52.257812 115.863281 54.683594 C 115.207031 57.113281 116.65625 59.605469 119.082031 60.242188 C 121.507812 60.898438 124.003906 59.449219 124.636719 57.019531 C 125.273438 54.59375 123.820312 52.121094 121.417969 51.464844 Z M 108.0625 55.796875 C 109.71875 56.25 111.417969 55.253906 111.851562 53.597656 C 112.304688 51.941406 111.304688 50.238281 109.652344 49.808594 C 107.996094 49.355469 106.296875 50.351562 105.863281 52.007812 C 105.433594 53.664062 106.410156 55.34375 108.0625 55.796875 Z M 99.402344 52.621094 C 100.605469 52.9375 101.851562 52.234375 102.191406 51.011719 C 102.511719 49.808594 101.808594 48.5625 100.582031 48.222656 C 99.382812 47.902344 98.132812 48.605469 97.792969 49.832031 C 97.476562 51.054688 98.179688 52.304688 99.402344 52.621094 Z M 92.738281 49.96875 C 93.507812 50.171875 94.300781 49.71875 94.507812 48.945312 C 94.710938 48.175781 94.257812 47.382812 93.488281 47.175781 C 92.714844 46.972656 91.921875 47.425781 91.71875 48.199219 C 91.515625 48.96875 91.96875 49.761719 92.738281 49.96875 Z M 92.738281 49.96875 "/>
<path style=" stroke:none;fill-rule:nonzero;fill:rgb(60.000002%,33.333334%,55.686277%);fill-opacity:1;" d="M 118.109375 62.375 C 116.136719 61.238281 113.617188 61.921875 112.460938 63.894531 C 111.328125 65.867188 112.007812 68.382812 113.980469 69.542969 C 115.953125 70.675781 118.492188 69.996094 119.625 68.023438 C 120.761719 66.046875 120.082031 63.53125 118.109375 62.375 Z M 108.335938 61.511719 C 109.128906 60.128906 108.652344 58.359375 107.269531 57.566406 C 105.886719 56.773438 104.121094 57.246094 103.324219 58.632812 C 102.53125 60.015625 103.007812 61.785156 104.390625 62.578125 C 105.773438 63.371094 107.542969 62.894531 108.335938 61.511719 Z M 99.675781 56.5 C 100.242188 55.5 99.902344 54.253906 98.925781 53.6875 C 97.929688 53.121094 96.683594 53.460938 96.117188 54.433594 C 95.550781 55.433594 95.890625 56.679688 96.863281 57.246094 C 97.839844 57.835938 99.109375 57.496094 99.675781 56.5 Z M 92.875 52.574219 C 93.238281 51.941406 93.03125 51.101562 92.375 50.738281 C 91.742188 50.375 90.902344 50.578125 90.539062 51.238281 C 90.175781 51.871094 90.378906 52.6875 91.039062 53.074219 C 91.695312 53.4375 92.511719 53.234375 92.875 52.574219 Z M 92.875 52.574219 "/>
<path style=" stroke:none;fill-rule:nonzero;fill:rgb(68.627453%,20.784314%,47.450981%);fill-opacity:1;" d="M 106.726562 72.011719 C 105.277344 73.464844 105.277344 75.824219 106.726562 77.277344 C 108.175781 78.726562 110.535156 78.726562 111.988281 77.277344 C 113.4375 75.824219 113.4375 73.464844 111.988281 72.011719 C 110.535156 70.5625 108.175781 70.5625 106.726562 72.011719 Z M 102.941406 68.203125 C 103.984375 67.160156 103.984375 65.457031 102.941406 64.414062 C 101.898438 63.371094 100.199219 63.371094 99.15625 64.414062 C 98.113281 65.457031 98.113281 67.160156 99.15625 68.203125 C 100.199219 69.269531 101.898438 69.269531 102.941406 68.203125 Z M 95.867188 61.125 C 96.59375 60.402344 96.59375 59.222656 95.867188 58.496094 C 95.140625 57.769531 93.960938 57.769531 93.238281 58.496094 C 92.511719 59.222656 92.511719 60.402344 93.238281 61.125 C 93.960938 61.851562 95.140625 61.851562 95.867188 61.125 Z M 88.636719 55.660156 C 89.109375 56.136719 89.90625 56.136719 90.378906 55.660156 C 90.855469 55.183594 90.855469 54.390625 90.378906 53.914062 C 89.90625 53.4375 89.109375 53.4375 88.636719 53.914062 C 88.136719 54.390625 88.136719 55.160156 88.636719 55.660156 Z M 88.636719 55.660156 "/>
<path style=" stroke:none;fill-rule:nonzero;fill:rgb(74.509805%,14.901961%,41.568628%);fill-opacity:1;" d="M 98.925781 78.25 C 97.25 79.226562 96.683594 81.359375 97.636719 83.035156 C 98.609375 84.714844 100.742188 85.28125 102.417969 84.328125 C 104.097656 83.355469 104.664062 81.222656 103.710938 79.542969 C 102.738281 77.867188 100.605469 77.277344 98.925781 78.25 Z M 96.933594 69.859375 C 96.253906 68.679688 94.734375 68.269531 93.554688 68.953125 C 92.375 69.632812 91.96875 71.152344 92.648438 72.332031 C 93.328125 73.511719 94.847656 73.917969 96.027344 73.238281 C 97.203125 72.558594 97.613281 71.039062 96.933594 69.859375 Z M 91.015625 64.574219 C 91.808594 64.121094 92.082031 63.101562 91.628906 62.304688 C 91.175781 61.511719 90.152344 61.238281 89.382812 61.695312 C 88.589844 62.148438 88.316406 63.167969 88.769531 63.9375 C 89.222656 64.753906 90.222656 65.027344 91.015625 64.574219 Z M 86.074219 55.976562 C 85.527344 56.296875 85.347656 56.976562 85.664062 57.519531 C 85.980469 58.066406 86.664062 58.246094 87.207031 57.929688 C 87.75 57.609375 87.933594 56.929688 87.613281 56.386719 C 87.296875 55.863281 86.617188 55.660156 86.074219 55.976562 Z M 86.074219 55.976562 "/>
<path style=" stroke:none;fill-rule:nonzero;fill:rgb(83.137256%,32.549021%,36.078432%);fill-opacity:1;" d="M 89.699219 82.289062 C 87.933594 82.765625 86.890625 84.578125 87.363281 86.324219 C 87.839844 88.09375 89.65625 89.136719 91.402344 88.660156 C 93.167969 88.183594 94.210938 86.371094 93.734375 84.625 C 93.28125 82.855469 91.46875 81.8125 89.699219 82.289062 Z M 88.113281 76.300781 C 89.316406 75.984375 90.039062 74.734375 89.722656 73.511719 C 89.40625 72.308594 88.160156 71.582031 86.933594 71.898438 C 85.734375 72.21875 85.007812 73.464844 85.324219 74.691406 C 85.640625 75.890625 86.890625 76.617188 88.113281 76.300781 Z M 86.640625 64.824219 C 86.414062 64.007812 85.574219 63.507812 84.734375 63.734375 C 83.917969 63.960938 83.421875 64.800781 83.648438 65.640625 C 83.875 66.457031 84.710938 66.957031 85.550781 66.730469 C 86.367188 66.503906 86.84375 65.640625 86.640625 64.824219 Z M 84.28125 58.066406 C 84.125 57.519531 83.578125 57.179688 83.011719 57.339844 C 82.46875 57.476562 82.128906 58.066406 82.285156 58.609375 C 82.445312 59.152344 82.988281 59.492188 83.554688 59.335938 C 84.101562 59.175781 84.441406 58.609375 84.28125 58.066406 Z M 84.28125 58.066406 "/>
<path style=" stroke:none;fill-rule:nonzero;fill:rgb(87.843138%,39.607844%,31.37255%);fill-opacity:1;" d="M 79.703125 83.785156 C 78 83.785156 76.597656 85.167969 76.597656 86.894531 C 76.597656 88.59375 77.980469 90 79.703125 90 C 81.402344 90 82.808594 88.617188 82.808594 86.894531 C 82.808594 85.167969 81.425781 83.785156 79.703125 83.785156 Z M 77.640625 75.121094 C 77.640625 76.253906 78.570312 77.183594 79.703125 77.183594 C 80.835938 77.183594 81.765625 76.253906 81.765625 75.121094 C 81.765625 73.988281 80.835938 73.058594 79.703125 73.058594 C 78.570312 73.058594 77.640625 73.964844 77.640625 75.121094 Z M 79.703125 67.363281 C 80.496094 67.363281 81.152344 66.707031 81.152344 65.914062 C 81.152344 65.117188 80.496094 64.460938 79.703125 64.460938 C 78.910156 64.460938 78.25 65.117188 78.25 65.914062 C 78.273438 66.730469 78.910156 67.363281 79.703125 67.363281 Z M 79.703125 57.859375 C 79.179688 57.859375 78.773438 58.269531 78.773438 58.789062 C 78.773438 59.3125 79.179688 59.71875 79.703125 59.71875 C 80.222656 59.71875 80.632812 59.3125 80.632812 58.789062 C 80.632812 58.292969 80.222656 57.859375 79.703125 57.859375 Z M 79.703125 57.859375 "/>
<path style=" stroke:none;fill-rule:nonzero;fill:rgb(96.078432%,49.803922%,15.686275%);fill-opacity:1;" d="M 69.613281 82.652344 C 68.070312 82.242188 66.484375 83.148438 66.078125 84.691406 C 65.667969 86.234375 66.574219 87.824219 68.117188 88.230469 C 69.660156 88.640625 71.246094 87.730469 71.652344 86.191406 C 72.0625 84.648438 71.15625 83.058594 69.613281 82.652344 Z M 72.402344 72.285156 C 71.40625 72.011719 70.382812 72.601562 70.136719 73.601562 C 69.863281 74.597656 70.453125 75.621094 71.449219 75.871094 C 72.449219 76.140625 73.46875 75.550781 73.71875 74.554688 C 73.964844 73.554688 73.375 72.535156 72.402344 72.285156 Z M 74.644531 63.894531 C 73.921875 63.710938 73.195312 64.121094 73.015625 64.847656 C 72.832031 65.570312 73.242188 66.296875 73.964844 66.503906 C 74.691406 66.683594 75.417969 66.273438 75.597656 65.550781 C 75.78125 64.824219 75.347656 64.097656 74.644531 63.894531 Z M 76.9375 58.519531 C 77.050781 58.085938 76.800781 57.632812 76.347656 57.496094 C 75.917969 57.382812 75.460938 57.632812 75.328125 58.085938 C 75.214844 58.519531 75.460938 58.972656 75.917969 59.109375 C 76.371094 59.222656 76.824219 58.972656 76.9375 58.519531 Z M 76.9375 58.519531 "/>
<path style=" stroke:none;fill-rule:nonzero;fill:rgb(97.254902%,59.607846%,16.078432%);fill-opacity:1;" d="M 60.089844 78.929688 C 58.800781 78.183594 57.167969 78.636719 56.417969 79.90625 C 55.671875 81.199219 56.125 82.832031 57.394531 83.582031 C 58.6875 84.328125 60.316406 83.875 61.066406 82.605469 C 61.8125 81.3125 61.382812 79.65625 60.089844 78.929688 Z M 65.464844 69.609375 C 64.671875 69.15625 63.671875 69.429688 63.199219 70.222656 C 62.742188 71.015625 63.015625 72.011719 63.808594 72.46875 C 64.601562 72.921875 65.601562 72.648438 66.078125 71.855469 C 66.53125 71.082031 66.257812 70.0625 65.464844 69.609375 Z M 68.617188 64.164062 C 69.207031 64.507812 69.976562 64.300781 70.316406 63.710938 C 70.65625 63.121094 70.453125 62.351562 69.863281 62.011719 C 69.273438 61.671875 68.503906 61.875 68.164062 62.464844 C 67.824219 63.054688 68.027344 63.824219 68.617188 64.164062 Z M 73.171875 56.296875 C 72.832031 56.089844 72.378906 56.203125 72.175781 56.566406 C 71.972656 56.90625 72.085938 57.363281 72.449219 57.566406 C 72.789062 57.769531 73.242188 57.65625 73.445312 57.292969 C 73.625 56.929688 73.511719 56.5 73.171875 56.296875 Z M 73.171875 56.296875 "/>
<path style=" stroke:none;fill-rule:nonzero;fill:rgb(99.215686%,75.686276%,14.901961%);fill-opacity:1;" d="M 48.324219 72.832031 C 47.351562 73.804688 47.351562 75.371094 48.324219 76.347656 C 49.300781 77.320312 50.863281 77.320312 51.839844 76.347656 C 52.8125 75.371094 52.8125 73.804688 51.839844 72.832031 C 50.863281 71.855469 49.300781 71.855469 48.324219 72.832031 Z M 57.394531 65.230469 C 56.828125 65.800781 56.828125 66.707031 57.394531 67.273438 C 57.960938 67.839844 58.867188 67.839844 59.433594 67.273438 C 60 66.707031 60 65.800781 59.433594 65.230469 C 58.867188 64.664062 57.960938 64.664062 57.394531 65.230469 Z M 64.105469 58.949219 C 63.652344 59.402344 63.652344 60.105469 64.105469 60.558594 C 64.558594 61.011719 65.261719 61.011719 65.714844 60.558594 C 66.167969 60.105469 66.167969 59.402344 65.714844 58.949219 C 65.261719 58.496094 64.558594 58.496094 64.105469 58.949219 Z M 70.382812 54.277344 C 70.136719 54.027344 69.75 54.027344 69.5 54.277344 C 69.25 54.527344 69.25 54.910156 69.5 55.160156 C 69.75 55.410156 70.136719 55.410156 70.382812 55.160156 C 70.632812 54.910156 70.632812 54.503906 70.382812 54.277344 Z M 70.382812 54.277344 "/>
<path style=" stroke:none;fill-rule:nonzero;fill:rgb(99.607843%,83.92157%,14.901961%);fill-opacity:1;" d="M 42.292969 63.917969 C 41.207031 64.550781 40.84375 65.933594 41.457031 67.023438 C 42.089844 68.113281 43.472656 68.476562 44.5625 67.863281 C 45.648438 67.226562 46.011719 65.84375 45.398438 64.753906 C 44.765625 63.667969 43.382812 63.28125 42.292969 63.917969 Z M 53.019531 58.925781 C 52.429688 59.265625 52.222656 60.039062 52.5625 60.628906 C 52.90625 61.21875 53.675781 61.421875 54.265625 61.082031 C 54.855469 60.742188 55.058594 59.96875 54.71875 59.378906 C 54.355469 58.789062 53.605469 58.585938 53.019531 58.925781 Z M 61.066406 54.503906 C 60.566406 54.796875 60.410156 55.410156 60.679688 55.910156 C 60.976562 56.410156 61.585938 56.566406 62.085938 56.296875 C 62.585938 56 62.742188 55.386719 62.472656 54.890625 C 62.199219 54.390625 61.566406 54.207031 61.066406 54.503906 Z M 61.066406 54.503906 "/>
<path style=" stroke:none;fill-rule:nonzero;fill:rgb(20.392157%,11.372549%,33.333334%);fill-opacity:1;" d="M 37.667969 37.789062 L 41.320312 37.789062 L 41.320312 51.804688 L 37.667969 51.804688 Z M 39.914062 31.527344 C 38.78125 31.230469 37.625 31.890625 37.328125 33.023438 C 37.035156 34.160156 37.691406 35.316406 38.824219 35.609375 C 39.957031 35.90625 41.113281 35.246094 41.410156 34.113281 C 41.703125 32.980469 41.023438 31.820312 39.914062 31.527344 Z M 52.585938 52.097656 C 51.636719 52.097656 50.773438 51.941406 50.023438 51.601562 C 49.253906 51.261719 48.640625 50.761719 48.1875 50.101562 L 48.1875 58.8125 L 44.628906 58.8125 L 44.628906 37.789062 L 48.167969 37.789062 L 48.167969 39.738281 C 48.640625 39.035156 49.253906 38.492188 50.003906 38.105469 C 50.773438 37.695312 51.613281 37.515625 52.5625 37.515625 C 53.449219 37.515625 54.289062 37.675781 55.105469 38.015625 C 55.917969 38.355469 56.644531 38.832031 57.257812 39.488281 C 57.871094 40.125 58.367188 40.894531 58.753906 41.800781 C 59.117188 42.710938 59.320312 43.707031 59.320312 44.820312 C 59.320312 45.953125 59.140625 46.949219 58.753906 47.835938 C 58.367188 48.71875 57.871094 49.492188 57.257812 50.125 C 56.644531 50.761719 55.917969 51.261719 55.125 51.601562 C 54.289062 51.941406 53.449219 52.097656 52.585938 52.097656 Z M 51.863281 48.71875 C 52.40625 48.71875 52.90625 48.605469 53.359375 48.402344 C 53.832031 48.199219 54.242188 47.902344 54.582031 47.5625 C 54.945312 47.199219 55.21875 46.792969 55.421875 46.316406 C 55.625 45.839844 55.714844 45.316406 55.714844 44.773438 C 55.714844 44.230469 55.625 43.707031 55.421875 43.230469 C 55.21875 42.753906 54.945312 42.347656 54.582031 41.984375 C 54.21875 41.621094 53.8125 41.347656 53.359375 41.144531 C 52.882812 40.941406 52.382812 40.828125 51.863281 40.828125 C 51.316406 40.828125 50.796875 40.941406 50.320312 41.144531 C 49.84375 41.347656 49.4375 41.644531 49.09375 41.984375 C 48.753906 42.347656 48.484375 42.753906 48.28125 43.253906 C 48.074219 43.730469 47.984375 44.25 47.984375 44.796875 C 47.984375 45.339844 48.074219 45.863281 48.28125 46.339844 C 48.484375 46.816406 48.753906 47.222656 49.09375 47.585938 C 49.4375 47.949219 49.84375 48.222656 50.320312 48.425781 C 50.773438 48.628906 51.292969 48.71875 51.863281 48.71875 Z M 61.882812 37.789062 L 65.417969 37.789062 L 65.417969 39.941406 C 65.757812 39.101562 66.28125 38.492188 66.9375 38.105469 C 67.59375 37.71875 68.390625 37.515625 69.296875 37.515625 C 69.773438 37.515625 70.203125 37.558594 70.609375 37.675781 C 71.019531 37.789062 71.359375 37.902344 71.652344 38.058594 L 70.363281 41.597656 C 70.179688 41.460938 69.90625 41.347656 69.589844 41.257812 C 69.25 41.167969 68.886719 41.121094 68.503906 41.121094 C 67.59375 41.121094 66.847656 41.371094 66.304688 41.894531 C 65.757812 42.414062 65.464844 43.253906 65.464844 44.433594 L 65.464844 51.828125 L 61.90625 51.828125 Z M 79.566406 52.097656 C 78.5 52.097656 77.527344 51.917969 76.640625 51.53125 C 75.734375 51.148438 74.964844 50.625 74.285156 49.96875 C 73.625 49.308594 73.105469 48.515625 72.71875 47.652344 C 72.355469 46.769531 72.152344 45.816406 72.152344 44.820312 C 72.152344 43.820312 72.332031 42.867188 72.71875 41.984375 C 73.082031 41.097656 73.605469 40.328125 74.285156 39.667969 C 74.941406 39.011719 75.734375 38.492188 76.640625 38.105469 C 77.546875 37.71875 78.523438 37.539062 79.566406 37.539062 C 80.609375 37.539062 81.582031 37.71875 82.492188 38.105469 C 83.398438 38.492188 84.191406 39.011719 84.847656 39.667969 C 85.507812 40.328125 86.027344 41.097656 86.414062 41.984375 C 86.796875 42.867188 86.980469 43.820312 86.980469 44.820312 C 86.980469 45.816406 86.796875 46.769531 86.414062 47.652344 C 86.027344 48.539062 85.507812 49.308594 84.847656 49.96875 C 84.191406 50.625 83.398438 51.148438 82.492188 51.53125 C 81.605469 51.917969 80.632812 52.097656 79.566406 52.097656 Z M 79.613281 48.695312 C 80.15625 48.695312 80.65625 48.582031 81.109375 48.378906 C 81.582031 48.175781 81.992188 47.902344 82.332031 47.539062 C 82.671875 47.199219 82.945312 46.792969 83.148438 46.316406 C 83.351562 45.839844 83.441406 45.316406 83.441406 44.773438 C 83.441406 44.230469 83.351562 43.730469 83.148438 43.230469 C 82.945312 42.753906 82.671875 42.324219 82.332031 41.984375 C 81.992188 41.644531 81.582031 41.371094 81.109375 41.144531 C 80.632812 40.941406 80.132812 40.828125 79.613281 40.828125 C 79.066406 40.828125 78.570312 40.941406 78.113281 41.144531 C 77.640625 41.347656 77.230469 41.621094 76.890625 41.984375 C 76.550781 42.324219 76.277344 42.753906 76.074219 43.230469 C 75.871094 43.707031 75.78125 44.230469 75.78125 44.773438 C 75.78125 45.316406 75.871094 45.839844 76.074219 46.316406 C 76.277344 46.792969 76.550781 47.199219 76.890625 47.539062 C 77.230469 47.878906 77.640625 48.152344 78.113281 48.378906 C 78.570312 48.605469 79.066406 48.695312 79.613281 48.695312 Z M 12.367188 37.789062 L 15.996094 37.789062 L 18.828125 46.746094 L 22.140625 37.789062 L 25.335938 37.789062 L 28.601562 46.746094 L 31.523438 37.789062 L 35.152344 37.789062 L 30.414062 51.804688 L 27.035156 51.804688 L 23.703125 42.664062 L 20.324219 51.804688 L 16.902344 51.804688 Z M 12.367188 37.789062 "/>
</g>
</svg>
