<?xml version="1.0" encoding="UTF-8"?>
<svg xmlns="http://www.w3.org/2000/svg" xmlns:xlink="http://www.w3.org/1999/xlink" width="90px" height="36px" viewBox="0 0 90 36" version="1.1">
<g id="surface1">
<path style=" stroke:none;fill-rule:nonzero;fill:rgb(12.156863%,43.921569%,75.686276%);fill-opacity:1;" d="M 0 0 L 0 2.464844 L 17.519531 2.464844 L 17.519531 0 Z M 20 0 L 20 2.464844 L 44.964844 2.464844 C 44.964844 2.464844 42.414062 0 39.039062 0 Z M 49.863281 0 L 49.863281 2.464844 L 64.964844 2.464844 L 64.070312 0 Z M 75.792969 0 L 74.898438 2.464844 L 89.863281 2.464844 L 89.863281 0 Z M 0 4.789062 L 0 7.253906 L 17.519531 7.253906 L 17.519531 4.789062 Z M 20 4.792969 L 20 7.253906 L 47.863281 7.253906 C 47.863281 7.253906 47.535156 5.359375 46.96875 4.792969 Z M 49.863281 4.792969 L 49.863281 7.253906 L 66.621094 7.253906 L 65.792969 4.792969 Z M 74 4.792969 L 73.171875 7.253906 L 89.863281 7.253906 L 89.863281 4.792969 Z M 5.035156 9.578125 L 5.035156 12.046875 L 12.621094 12.046875 L 12.621094 9.578125 Z M 25.035156 9.578125 L 25.035156 12.046875 L 32.621094 12.046875 L 32.621094 9.578125 Z M 40 9.578125 L 40 12.046875 L 47.585938 12.046875 C 47.585938 12.046875 48.070312 10.742188 48.070312 9.578125 Z M 54.898438 9.578125 L 54.898438 12.046875 L 68.347656 12.046875 L 67.449219 9.578125 Z M 72.347656 9.578125 L 71.449219 12.046875 L 84.964844 12.046875 L 84.964844 9.578125 Z M 5.035156 14.375 L 5.035156 16.835938 L 12.621094 16.835938 L 12.621094 14.375 Z M 25.035156 14.375 L 25.035156 16.835938 L 44.414062 16.835938 C 44.414062 16.835938 46.035156 15.574219 46.550781 14.375 Z M 54.898438 14.375 L 54.898438 16.835938 L 62.484375 16.835938 L 62.484375 15.464844 L 62.964844 16.835938 L 76.863281 16.835938 L 77.378906 15.464844 L 77.378906 16.835938 L 84.964844 16.835938 L 84.964844 14.375 L 70.722656 14.375 L 69.96875 16.460938 L 69.207031 14.375 Z M 5.035156 19.164062 L 5.035156 21.625 L 12.621094 21.625 L 12.621094 19.164062 Z M 25.035156 19.164062 L 25.035156 21.625 L 46.550781 21.625 C 46.035156 20.429688 44.414062 19.164062 44.414062 19.164062 Z M 54.898438 19.164062 L 54.898438 21.625 L 62.484375 21.625 L 62.484375 19.164062 Z M 63.859375 19.164062 L 64.777344 21.625 L 75.199219 21.625 L 76.070312 19.164062 Z M 77.378906 19.164062 L 77.378906 21.625 L 84.964844 21.625 L 84.964844 19.164062 Z M 5.035156 23.953125 L 5.035156 26.417969 L 12.621094 26.417969 L 12.621094 23.953125 Z M 25.035156 23.953125 L 25.035156 26.417969 L 32.621094 26.417969 L 32.621094 23.953125 Z M 40 23.953125 L 40 26.417969 L 48.070312 26.417969 C 48.070312 25.253906 47.585938 23.953125 47.585938 23.953125 Z M 54.898438 23.953125 L 54.898438 26.417969 L 62.484375 26.417969 L 62.484375 23.953125 Z M 65.585938 23.953125 L 66.472656 26.417969 L 73.460938 26.417969 L 74.355469 23.953125 Z M 77.378906 23.953125 L 77.378906 26.417969 L 84.964844 26.417969 L 84.964844 23.953125 Z M 0.136719 28.742188 L 0.136719 31.210938 L 17.65625 31.210938 L 17.65625 28.742188 Z M 20 28.742188 L 20 31.210938 L 46.96875 31.210938 C 47.535156 30.644531 47.863281 28.742188 47.863281 28.742188 Z M 50 28.742188 L 50 31.210938 L 62.484375 31.210938 L 62.484375 28.742188 Z M 67.308594 28.742188 L 68.222656 31.210938 L 71.777344 31.210938 L 72.636719 28.742188 Z M 77.378906 28.742188 L 77.378906 31.210938 L 90 31.210938 L 90 28.742188 Z M 0.136719 33.535156 L 0.136719 36 L 17.65625 36 L 17.65625 33.535156 Z M 20 33.535156 L 20 35.996094 L 39.039062 35.996094 C 42.414062 35.996094 44.964844 33.535156 44.964844 33.535156 Z M 50 33.535156 L 50 36 L 62.484375 36 L 62.484375 33.535156 Z M 69.042969 33.535156 L 69.921875 35.992188 L 70.074219 35.996094 L 70.964844 33.535156 Z M 77.378906 33.535156 L 77.378906 36 L 90 36 L 90 33.535156 Z M 77.378906 33.535156 "/>
</g>
</svg>
