<?xml version="1.0" encoding="UTF-8"?>
<svg xmlns="http://www.w3.org/2000/svg" xmlns:xlink="http://www.w3.org/1999/xlink" width="90px" height="35px" viewBox="0 0 90 35" version="1.1">
<g id="surface1">
<path style=" stroke:none;fill-rule:evenodd;fill:rgb(21.568628%,50.588238%,76.078433%);fill-opacity:1;" d="M 0.527344 3.558594 L 0.527344 0.0742188 L 3.929688 0.0742188 L 3.929688 28.683594 L 0.527344 28.683594 Z M 35.195312 18.296875 C 35.265625 23.527344 38.523438 27.664062 42.359375 27.59375 C 46.195312 27.519531 49.304688 23.238281 49.234375 18.082031 C 49.160156 12.851562 45.90625 8.714844 42.070312 8.785156 C 38.234375 8.785156 35.121094 13.070312 35.195312 18.296875 Z M 63.492188 11.980469 C 63.5625 12.199219 63.347656 11.691406 63.347656 11.691406 Z M 65.808594 33.546875 C 65.953125 33.257812 66.167969 32.894531 66.457031 32.386719 Z M 65.953125 10.167969 C 66.023438 10.3125 66.023438 10.382812 66.097656 10.527344 L 67.253906 13.359375 Z M 51.695312 24.472656 C 53.792969 26.429688 55.675781 27.375 58.136719 27.375 C 60.597656 27.375 62.839844 26.140625 62.839844 23.816406 C 62.839844 21.855469 61.101562 20.695312 57.992188 19.386719 C 55.386719 18.226562 53.429688 17.425781 52.417969 15.757812 C 52.5625 16.484375 52.636719 17.210938 52.636719 18.007812 C 52.636719 24.398438 48.074219 29.554688 42.359375 29.554688 C 36.714844 29.554688 32.082031 24.398438 32.082031 18.007812 C 32.082031 14.160156 33.746094 10.746094 36.351562 8.640625 L 29.402344 8.640625 L 29.402344 28.683594 L 26.292969 28.683594 L 26.292969 8.714844 L 23.542969 8.714844 L 23.542969 6.609375 L 26.292969 6.609375 C 26.652344 2.394531 29.257812 0 32.804688 0 C 35.121094 0 36.425781 0.21875 37.148438 0.582031 L 37.148438 3.777344 L 37.074219 3.777344 C 35.988281 2.757812 34.832031 1.960938 32.296875 1.960938 C 30.273438 1.960938 28.898438 3.632812 29.402344 6.609375 L 40.910156 6.609375 C 41.417969 6.535156 41.851562 6.464844 42.359375 6.464844 C 46.484375 6.464844 50.03125 9.222656 51.621094 13.144531 L 51.621094 12.488281 C 51.621094 8.351562 55.53125 6.609375 59.65625 6.609375 L 60.089844 6.609375 C 61.539062 6.609375 63.5625 7.042969 64.867188 7.40625 L 67.328125 13.433594 L 70.800781 22.003906 L 71.234375 23.382812 L 71.667969 22.003906 L 76.085938 11.039062 C 76.878906 7.988281 80.066406 6.679688 83.609375 6.753906 C 85.347656 6.753906 86.652344 6.972656 88.242188 7.480469 L 88.242188 10.820312 C 86.289062 9.441406 84.914062 8.570312 82.742188 8.570312 C 80.859375 8.570312 78.546875 9.441406 78.546875 12.273438 C 78.472656 14.378906 79.773438 14.8125 83.539062 16.703125 C 86.578125 18.007812 89.402344 19.535156 89.472656 22.945312 C 89.472656 28.683594 83.902344 29.625 81.152344 29.699219 C 78.691406 29.699219 76.519531 29.117188 75.289062 28.027344 L 75.289062 24.253906 L 75.503906 24.398438 C 77.75 26.503906 79.628906 27.59375 82.164062 27.59375 C 84.625 27.59375 86.867188 26.359375 86.867188 24.035156 C 86.867188 22.074219 85.132812 20.914062 82.019531 19.605469 C 79.050781 18.300781 77.097656 17.425781 76.300781 15.320312 C 75.070312 18.296875 69.5 32.09375 68.195312 35 L 65.082031 35 L 66.457031 32.386719 C 67.183594 30.859375 68.339844 28.539062 69.28125 26.285156 L 63.492188 12.125 C 63.417969 12.054688 63.347656 11.835938 63.128906 11.402344 C 62.695312 10.382812 62.261719 9.441406 61.03125 8.929688 C 60.378906 8.714844 59.65625 8.570312 58.789062 8.570312 C 56.90625 8.570312 54.445312 9.441406 54.445312 12.273438 C 54.371094 14.378906 55.820312 14.8125 59.582031 16.703125 C 62.621094 18.082031 65.445312 19.535156 65.519531 22.945312 C 65.519531 28.683594 59.945312 29.625 57.195312 29.699219 C 55.023438 29.699219 53.070312 29.191406 51.765625 28.390625 L 51.765625 24.472656 M 10.296875 6.753906 L 10.371094 9.222656 L 10.371094 9.367188 C 10.441406 9.292969 10.441406 9.148438 10.515625 9.078125 C 11.746094 7.695312 13.335938 6.390625 17.101562 6.390625 C 20.71875 6.390625 23.035156 9.441406 23.105469 11.402344 L 23.105469 28.609375 L 19.996094 28.609375 L 19.996094 12.851562 C 19.996094 10.457031 17.894531 8.714844 15.289062 8.714844 C 13.121094 8.714844 10.371094 10.675781 10.296875 12.636719 L 10.296875 28.683594 L 7.183594 28.683594 L 7.183594 6.753906 Z M 10.296875 6.753906 "/>
</g>
</svg>
